HIERARCHY
ROOT simHips
{
  OFFSET -164.024 100.189 6.4737
  CHANNELS 6 Xposition Yposition Zposition Zrotation Xrotation Yrotation
  JOINT simSpine
  {
    OFFSET -0.000355721 21.3001 -0.016921
    CHANNELS 3 Zrotation Xrotation Yrotation
    JOINT simLeftArm
    {
      OFFSET 13.5181 21.3012 0
      CHANNELS 3 Zrotation Xrotation Yrotation
      JOINT simLeftForeArm
      {
        OFFSET 24.5783 0 0
        CHANNELS 3 Zrotation Xrotation Yrotation
        JOINT simLeftHand
        {
          OFFSET 24.5783 0 0
          CHANNELS 3 Zrotation Xrotation Yrotation
          End Site
          {
            OFFSET 7.32568 1.52588e-05 0.0169305
          }
        }
      }
    }
    JOINT simHead
    {
      OFFSET 0 27.4458 -0.00489235
      CHANNELS 3 Zrotation Xrotation Yrotation
      End Site
      {
        OFFSET 0 0 0
      }
    }
    JOINT simRightArm
    {
      OFFSET -13.5174 21.3012 0
      CHANNELS 3 Zrotation Xrotation Yrotation
      JOINT simRightForeArm
      {
        OFFSET -24.5783 0 0
        CHANNELS 3 Zrotation Xrotation Yrotation
        JOINT simRightHand
        {
          OFFSET -24.5783 0 0
          CHANNELS 3 Zrotation Xrotation Yrotation
          End Site
          {
            OFFSET -7.32568 1.52588e-05 0.0169305
          }
        }
      }
    }
  }
  JOINT simRightUpLeg
  {
    OFFSET -8.44614 -9.41038 0.835684
    CHANNELS 3 Zrotation Xrotation Yrotation
    JOINT simRightLeg
    {
      OFFSET 0 -40.9639 0
      CHANNELS 3 Zrotation Xrotation Yrotation
      JOINT simRightFoot
      {
        OFFSET 0 -40.9639 0
        CHANNELS 3 Zrotation Xrotation Yrotation
        End Site
        {
          OFFSET 0.50614 -9.67405 14.6709
        }
      }
    }
  }
  JOINT simLeftUpLeg
  {
    OFFSET 8.44614 -9.41038 0.835684
    CHANNELS 3 Zrotation Xrotation Yrotation
    JOINT simLeftLeg
    {
      OFFSET 0 -40.9639 0
      CHANNELS 3 Zrotation Xrotation Yrotation
      JOINT simLeftFoot
      {
        OFFSET 0 -40.9639 0
        CHANNELS 3 Zrotation Xrotation Yrotation
        End Site
        {
          OFFSET -0.50614 -9.67405 14.6709
        }
      }
    }
  }
}
MOTION
Frames:	29
Frame Time:	0.0333333
6.17831 99.0936 -6.49548 4.69384 10.6264 85.9343 -12.8513 10.9287 2.84863 -73.248 52.2722 -9.80405 15.6188 -4.62346 -29.9971 -0.43639 -1.89484 0.650895 6.08283 -1.20368 2.673 90.552 40.7686 -15.9884 -18.7516 -5.246 37.7336 0.476899 -8.66984 -2.51537 -14.8488 -22.6322 -4.1531 0.161119 27.604 -2.15562 0.611166 -12.9275 -7.50333 -13.2748 11.3871 -0.23367 -2.18294 16.5913 1.48743 -2.21315 -17.2577 -0.497726 
9.33913 98.4354 -6.63557 3.61248 11.3777 86.8921 -12.9687 9.94483 2.24999 -72.5329 53.6728 -10.2295 15.6398 -4.62887 -30.0617 -0.439729 -1.78834 0.665616 7.80165 -2.04001 1.5762 91.0645 39.0175 -16.7405 -18.5479 -5.18052 37.4134 0.449326 -8.85586 -2.51496 -15.33 -22.0843 -3.006 -0.736449 16.9921 -1.76261 1.23297 -13.1499 -5.09762 -13.8925 12.4373 -0.156042 -2.14077 16.5603 1.49324 -2.54549 -18.649 -2.01267 
12.6448 97.6421 -6.74106 2.71588 12.5156 87.3839 -13.515 9.09874 2.05342 -72.7888 54.1309 -10.1487 15.4571 -4.51948 -29.7398 -0.44063 -1.20547 0.67428 9.51845 -3.03831 0.883977 91.4186 36.3535 -17.089 -18.3605 -5.15023 37.176 0.485338 -8.11664 -2.52678 -16.7154 -22.5051 -3.19806 -1.18416 11.8983 -1.55656 2.35907 -12.9053 -1.01427 -15.074 13.3268 0.00225184 -2.13125 17.312 1.55003 -2.97759 -19.9351 -3.7525 
16.0835 96.8659 -6.70094 2.14708 12.9246 87.9193 -13.3528 8.65727 1.88866 -74.382 53.3679 -9.00456 14.9566 -4.24539 -28.8497 -0.44267 -0.0610588 0.689033 11.0878 -4.02821 0.0779304 91.6809 34.5454 -17.4052 -17.5547 -4.79625 35.8493 0.450021 -7.50493 -2.52221 -16.8381 -23.6817 -2.30153 -1.0979 14.0911 -1.57867 2.61208 -11.5352 -0.0107135 -15.3551 14.5734 -0.358457 -2.15069 18.325 1.58218 -3.14179 -20.8353 -4.26561 
19.6829 96.3266 -6.67489 2.162 12.5612 88.384 -12.1321 8.9909 1.453 -77.1793 51.4415 -7.16144 14.2952 -3.90166 -27.6583 -0.44356 1.4531 0.697779 12.0496 -5.20039 -0.412516 91.0572 33.2994 -16.7696 -16.3267 -4.33488 33.9404 0.433663 -6.44167 -2.58075 -15.9735 -24.6923 -0.115107 -0.712472 18.7954 -1.67925 1.83313 -5.68772 -3.79657 -15.0359 16.4187 -1.49114 -2.19256 19.7224 1.59883 -3.16379 -21.6391 -4.20583 
23.139 96.1763 -6.44771 2.05383 9.77905 88.4126 -8.24027 9.57841 0.832935 -80.46 48.8174 -4.91848 13.4735 -3.50014 -26.1909 -0.473707 1.93563 0.720657 12.7367 -6.36943 0.115836 89.3424 31.7053 -14.6116 -14.4099 -3.66322 31.0524 0.39613 -3.89212 -2.63635 -11.7621 -26.8441 2.70014 0.133385 25.9035 -2.2193 1.31223 -5.30649 -8.03559 -12.0076 17.4238 -2.83616 -2.24627 22.1894 1.58481 -2.95707 -21.5749 -3.60281 
26.8377 96.3831 -6.19051 2.92368 7.97321 87.6999 -5.72883 10.766 0.668207 -83.7771 45.6194 -2.07523 12.3124 -2.97119 -24.1624 -0.512128 3.40277 0.730134 13.4265 -6.52648 0.962183 87.5363 29.6098 -11.8114 -12.1356 -2.95612 27.626 0.332636 -0.0151433 -2.66624 -8.36286 -26.4828 4.70103 0.805911 30.9757 -2.73122 1.40859 -6.2152 -7.25491 -10.2975 18.9762 -3.19846 -2.3898 25.2643 1.64082 -2.62568 -20.1964 -2.61377 
30.7002 96.6785 -5.76972 3.57557 6.5009 87.2677 -3.99441 11.3467 0.108485 -86.1149 43.0585 0.637368 10.8084 -2.34752 -21.5866 -0.537984 4.97631 0.749521 14.8577 -5.8685 1.87685 86.9934 28.8931 -10.2137 -11.5092 -2.80429 26.6567 0.32367 1.62808 -2.72699 -5.13777 -23.9916 7.18309 1.18885 32.3246 -3.07495 1.21308 -7.54221 -8.11474 -8.25412 19.4896 -2.61517 -2.55816 29.4782 1.75271 -2.6723 -16.2315 -3.4665 
34.4412 96.9452 -5.30642 3.81854 5.71206 87.6932 -3.12837 11.5922 -0.746802 -87.2803 41.698 2.64548 9.36464 -1.81316 -19.1143 -0.49342 8.51002 0.742079 16.7195 -5.04516 1.97429 87.3106 29.948 -9.76562 -11.8783 -2.88554 27.0783 0.276288 0.493192 -2.69565 -3.43037 -21.1601 8.05058 1.35338 32.9049 -3.22853 1.01702 -9.68583 -8.08522 -6.21373 18.0162 -2.01773 -2.69581 35.3912 1.92947 -2.54854 -8.8335 -4.5019 
38.0179 97.277 -4.82465 4.15558 4.54714 87.8126 -1.86736 11.8427 -0.997851 -87.7738 42.454 4.20289 8.25218 -1.44406 -17.216 -0.368682 13.5094 0.73124 17.8181 -4.1099 2.1638 87.4928 31.2783 -9.47734 -12.8069 -3.14404 28.4451 0.317465 -1.15317 -2.66417 -1.55706 -18.3658 8.41231 1.53533 33.4362 -3.38407 0.824582 -11.9464 -7.92666 -3.68601 15.6296 -1.36885 -2.85081 41.6785 2.14017 -2.16616 -0.113251 -4.53483 
41.3252 97.6243 -4.47504 4.59718 2.3515 88.2121 0.830599 12.3821 -1.50918 -88.4343 44.8117 5.95919 8.1169 -1.3985 -16.9782 -0.205383 19.2355 0.714309 18.1724 -3.65734 2.0233 86.8363 32.9674 -8.48512 -13.5624 -3.36406 29.6809 0.297297 -3.98409 -2.65889 0.887826 -14.7696 7.57978 1.58661 32.4693 -3.43678 0.813097 -13.4841 -7.31253 0.139829 12.8984 -0.841615 -2.9704 47.5426 2.31432 -1.72141 7.97094 -4.73853 
44.5872 98.107 -4.23786 5.64393 1.10782 88.5818 2.34048 13.2781 -1.90466 -88.8106 47.4152 7.07752 8.18162 -1.41317 -17.0651 -0.0813358 23.9038 0.705813 18.5477 -2.96301 2.08812 86.4733 34.5369 -8.12891 -14.7211 -3.72936 31.4476 0.266509 -7.16062 -2.61375 1.82175 -10.267 6.01278 1.4843 30.5937 -3.3353 0.926108 -14.6946 -6.361 2.71886 10.1397 0.165227 -3.3471 53.7975 2.80011 -1.86537 7.12644 -4.22571 
47.6017 98.5832 -3.78538 5.91619 0.0792001 88.8476 3.37991 13.4811 -1.73771 -88.852 49.1074 7.69311 8.50281 -1.50921 -17.5974 -0.0412477 26.4853 0.709806 18.527 -2.59347 1.09214 85.5444 35.5907 -6.32752 -14.9409 -3.81847 31.9238 0.205087 -9.48955 -2.66843 3.19425 -6.69746 5.59272 1.40256 28.6287 -3.24042 0.889587 -15.9707 -6.09898 5.40804 5.81121 1.89043 -3.90171 58.9471 3.49285 -2.40409 3.76383 -0.968736 
50.4748 99.0725 -3.31444 5.82773 -1.04614 88.1164 4.03676 13.6869 -0.34569 -88.0755 49.0832 7.08421 8.8468 -1.61609 -18.1742 -0.0830621 26.1086 0.728319 18.2915 -2.45199 1.03295 84.6714 36.8553 -4.6994 -15.2886 -3.94988 32.4714 0.252951 -9.82976 -2.68465 4.88597 -3.69066 6.29141 1.27649 26.6762 -3.09112 0.842421 -16.8303 -5.98875 8.09145 0.909589 4.40346 -4.57081 62.336 4.2876 -2.60868 1.37362 1.79075 
53.2724 99.5872 -3.11647 5.92858 -1.50058 87.8636 4.40122 13.8337 0.456294 -87.8396 47.6199 6.63971 9.3949 -1.80005 -19.1018 -0.208824 23.3935 0.787644 17.2139 -1.91318 0.886948 82.9225 38.6154 -2.38327 -15.0434 -3.8617 32.2145 0.207415 -9.94691 -2.72226 5.10961 -0.333423 5.60953 1.08316 24.2849 -2.92584 1.08572 -17.0701 -4.96127 9.40909 -3.8769 5.67637 -4.94388 63.4516 4.73538 -2.50893 -1.38414 2.99212 
56.0062 99.9449 -3.09643 6.3216 -2.10183 87.7098 5.27735 14.3277 1.18236 -87.7377 46.917 5.71247 10.0932 -2.03875 -20.2241 -0.337431 18.0597 0.829593 15.3957 -1.54706 0.785832 80.9041 40.6184 -0.563313 -15.2323 -3.95493 32.656 0.205355 -8.81978 -2.74109 5.34136 3.31845 4.64903 0.920161 21.7964 -2.78044 1.28569 -17.2009 -4.09699 10.5197 -8.03158 6.48862 -4.88284 62.5206 4.72494 -2.31111 -3.99429 3.56442 
58.7917 100.098 -3.04442 6.75941 -2.43032 87.6722 5.71947 14.8575 2.2023 -87.5965 47.1272 5.03366 11.297 -2.49695 -22.2616 -0.373266 10.6581 0.772944 13.3593 -1.51028 0.566103 79.2946 42.4642 0.495487 -16.0109 -4.25108 33.9468 0.239411 -8.27793 -2.71486 5.35821 6.89692 3.92846 0.782282 19.4274 -2.66042 1.43268 -17.9063 -3.30471 11.3474 -11.8691 6.89467 -4.4794 59.6797 4.33369 -2.15826 -5.6339 3.65842 
61.6016 100.087 -3.05735 6.69739 -3.83178 87.3336 7.45263 14.7887 3.20906 -87.9137 46.8134 4.4392 12.4995 -3.00977 -24.3237 -0.37563 5.17073 0.705171 11.1558 -1.23378 0.572907 77.43 44.9696 0.906215 -17.1584 -4.69188 35.7579 0.363228 -8.04099 -2.6643 6.80899 9.7811 4.01722 0.723363 17.2523 -2.60014 1.4956 -18.2994 -2.90126 13.4162 -15.5201 7.7872 -3.83937 55.2148 3.68341 -2.03648 -6.9397 5.23985 
64.4493 99.9222 -3.0354 6.54634 -4.79801 86.7559 8.42258 14.9186 4.34166 -88.1861 45.9371 3.91683 13.6611 -3.56052 -26.3399 -0.413181 2.27067 0.691874 9.02712 -1.34634 0.804936 74.9044 47.7207 2.37021 -18.0389 -5.0276 37.0838 0.355468 -8.15253 -2.60877 7.57235 12.3914 3.60436 0.680878 15.6361 -2.55557 1.6079 -18.944 -2.29291 15.0502 -18.389 8.45606 -3.20275 48.9409 2.95247 -2.11028 -6.73868 6.42047 
67.5107 99.545 -3.17329 6.30682 -5.31207 86.3494 9.11563 14.3769 5.28109 -89.2187 45.2507 4.21061 14.5189 -4.00405 -27.8744 -0.459852 1.11893 0.681037 6.77101 -0.969783 0.693663 72.7265 50.1725 3.22518 -18.7891 -5.31367 38.2414 0.460221 -8.12956 -2.55524 7.71081 14.8188 3.12396 0.637493 14.4815 -2.51458 1.81385 -19.7795 -1.37222 15.5908 -20.107 7.75923 -2.77391 40.5184 2.29312 -2.33656 -5.61051 7.08527 
70.6623 98.9561 -3.21723 5.63858 -5.61612 85.8869 9.1009 13.3174 5.94293 -90.0509 44.3962 4.83365 15.1536 -4.35907 -29.0678 -0.50793 0.199836 0.667899 5.2503 -0.62847 0.899259 71.2406 52.3573 4.11661 -19.2498 -5.46431 38.8937 0.460519 -7.53703 -2.48816 7.62949 16.6333 2.59877 0.603941 13.7223 -2.48643 1.98115 -20.6824 -0.640296 15.8049 -21.4272 5.68621 -2.54837 30.8216 1.72235 -2.92827 -2.33582 7.63848 
73.959 98.2278 -3.24891 4.81622 -7.03319 85.5105 10.2743 12.1666 6.51898 -91.1752 43.8509 5.55506 15.3736 -4.48148 -29.4746 -0.544836 -1.20367 0.657887 3.61822 -0.608958 1.30106 70.4469 53.356 4.58508 -19.4875 -5.53743 39.2436 0.54449 -6.64341 -2.46535 9.19683 18.262 2.94802 0.686473 13.4389 -2.5191 1.85523 -22.1386 -0.900704 17.1052 -22.9852 2.11076 -2.15763 23.6044 1.24176 -3.14659 -1.88922 7.65962 
77.456 97.3617 -3.43711 3.98679 -7.76346 85.2995 10.7009 11.0718 6.64018 -92.3149 43.1511 6.34139 15.3029 -4.43944 -29.3435 -0.568551 -1.5389 0.656382 2.03151 -1.14858 1.58238 69.7103 54.0851 5.39819 -19.2388 -5.40194 38.8396 0.532267 -5.59702 -2.47332 9.76862 19.7458 3.06976 0.7396 13.4299 -2.53727 1.9924 -23.5202 -0.397857 17.4898 -24.5292 -0.676259 -1.99554 20.0332 1.05898 -3.03759 -1.03354 6.04556 
81.2152 96.4584 -3.68566 3.53763 -7.7552 84.8581 10.1975 10.1015 6.7837 -93.8083 42.4138 7.95904 15.1992 -4.38359 -29.174 -0.5874 -1.82774 0.608859 0.459372 -1.45662 2.42279 70.4398 53.6347 5.2385 -18.7905 -5.21638 38.2663 0.506453 -4.53303 -2.53178 9.55436 21.5942 4.1107 0.824266 13.9398 -2.53562 1.70125 -24.9489 -1.11251 16.9742 -25.2474 -0.70374 -2.02688 20.6157 1.11384 -2.91535 -0.355356 5.04497 
85.0406 95.6027 -3.98288 3.17315 -7.43112 84.5037 9.26041 9.40021 7.10215 -94.6682 41.9443 8.54961 14.886 -4.20133 -28.5678 -0.564382 -6.75014 0.533064 -0.719845 -2.17991 2.23333 72.4855 52.1867 3.63522 -18.5426 -5.14822 38.0363 0.515598 -3.96525 -2.58661 8.95819 23.0823 5.53317 0.964681 15.5095 -2.5598 1.37261 -26.2354 -1.86311 15.7576 -25.5151 -1.71626 -2.1909 22.8614 1.29573 -3.65047 5.7839 5.59816 
88.9877 95.1109 -4.44687 3.40854 -4.49682 84.5065 5.42973 9.19714 7.40024 -94.7011 41.095 8.55935 14.6458 -4.0756 -28.1311 -0.527704 -12.5234 0.450273 -1.84979 -3.34499 2.01188 75.2932 50.2095 1.70091 -17.875 -4.93879 37.2693 0.391908 -4.13514 -2.69961 5.18306 24.6409 7.09891 1.01982 17.7611 -2.50466 0.961731 -26.5814 -2.79839 10.6201 -26.2455 -4.54075 -2.86743 27.3583 1.94206 -3.58616 5.31926 6.59037 
92.8644 95.1744 -4.98895 4.44071 -2.61251 84.9821 2.88256 10.25 7.52676 -93.9795 39.6207 7.04504 13.8718 -3.66554 -26.6247 -0.487053 -13.5329 0.441758 -2.51662 -4.37202 1.74634 78.3921 47.3263 -1.31116 -17.2522 -4.76394 36.6313 0.320084 -2.96745 -2.79675 2.94155 25.7858 8.38491 1.29683 22.0009 -2.59654 0.5556 -25.2779 -3.96285 6.34896 -25.4909 -6.79604 -3.4054 32.2153 2.52083 -2.92863 2.34125 5.89731 
96.8467 95.4514 -5.58739 5.18863 -1.37634 84.7163 1.22493 10.8602 8.58456 -93.0726 39.4495 5.3206 12.7157 -3.08875 -24.4466 -0.47963 -11.2002 0.499575 -4.25359 -4.41017 1.20669 80.9012 46.2479 -4.68976 -16.5204 -4.50327 35.6866 0.207432 -4.47025 -2.91535 0.634106 25.616 8.4114 1.70065 27.7134 -2.82938 1.09371 -21.5493 -2.85727 3.54337 -23.0914 -7.41451 -3.5529 34.3207 2.68648 -2.45626 -0.981769 5.56601 
100.663 95.7981 -6.195 5.64326 -0.254618 83.9075 -0.339398 10.9758 9.75843 -92.1468 37.8376 3.39652 11.6609 -2.61524 -22.4861 -0.478775 -5.41473 0.561519 -5.72587 -3.54834 1.38303 82.6468 46.8767 -7.5796 -15.5885 -4.12231 34.2868 0.179426 -3.73572 -2.95003 -1.84824 23.1694 8.48446 2.16537 34.9825 -3.16717 1.78452 -14.5535 -1.02502 1.53959 -19.9531 -6.82242 -3.55957 34.8471 2.66656 -2.03242 -4.23264 5.11134 
